<?xml version="1.0" standalone="no"?>
<!DOCTYPE svg PUBLIC "-//W3C//DTD SVG 20010904//EN"
 "http://www.w3.org/TR/2001/REC-SVG-20010904/DTD/svg10.dtd">
<svg version="1.0" xmlns="http://www.w3.org/2000/svg"
 width="300.000000pt" height="283.000000pt" viewBox="0 0 300.000000 283.000000"
 preserveAspectRatio="xMidYMid meet">
<metadata>
Created by potrace 1.10, written by Peter Selinger 2001-2011
</metadata>
<g transform="translate(0.000000,283.000000) scale(0.100000,-0.100000)"
fill="#000000" stroke="none">
<path d="M1498 2808 c4 -15 -3 -18 -43 -18 -40 0 -46 3 -41 16 6 15 -2 16 -81
11 -167 -12 -343 -80 -506 -198 -145 -103 -232 -199 -382 -419 -151 -222 -191
-355 -143 -486 10 -27 8 -42 -12 -96 -50 -140 -138 -290 -231 -400 -27 -31
-49 -65 -49 -76 0 -49 83 -92 181 -92 l55 0 13 -49 c7 -28 28 -82 47 -121 28
-59 32 -74 22 -90 -17 -27 7 -67 54 -91 21 -11 45 -34 54 -52 29 -55 91 -142
143 -199 36 -40 47 -58 40 -69 -27 -42 6 -84 131 -169 107 -73 280 -142 440
-177 110 -23 515 -26 625 -4 233 46 366 112 508 249 57 56 77 82 77 102 0 17
13 38 35 60 36 35 133 174 155 220 6 14 25 32 43 40 45 22 75 65 60 89 -10 16
-4 38 35 130 l47 110 64 1 c80 0 137 29 149 74 12 45 6 56 -55 105 -81 64
-159 192 -229 372 l-34 88 21 35 c66 113 4 335 -166 591 -183 276 -576 492
-951 524 -74 6 -81 5 -76 -11z m151 -54 c336 -49 675 -253 837 -504 62 -96 92
-160 130 -279 37 -114 55 -221 36 -221 -6 0 -16 19 -22 43 -48 181 -129 364
-190 431 -56 60 -72 59 -26 -1 78 -102 114 -193 207 -513 67 -236 168 -423
282 -526 27 -24 47 -47 43 -51 -12 -13 -96 35 -316 181 -335 222 -398 247
-741 297 -207 30 -222 31 -464 26 -352 -7 -520 -37 -755 -131 -176 -72 -259
-122 -422 -256 -178 -145 -165 -137 -179 -123 -9 9 -3 23 27 58 129 152 184
243 219 360 10 33 26 87 35 120 10 33 30 101 45 150 15 50 47 128 71 174 25
46 43 86 40 89 -14 13 -105 -138 -137 -228 -27 -75 -38 -58 -19 30 25 114 131
297 271 465 282 338 613 470 1028 409z m68 -1174 c237 -16 418 -56 583 -128
l85 -38 6 -44 c3 -25 9 -86 13 -136 l6 -90 -92 23 c-312 79 -525 107 -823 106
-288 0 -460 -22 -805 -102 -46 -11 -86 -18 -88 -16 -2 2 1 43 7 92 6 48 11
111 11 138 l0 50 118 43 c160 58 309 88 527 105 88 7 327 6 452 -3z m-1115
-150 c-2 -16 -8 -30 -12 -30 -9 0 -34 29 -29 34 3 2 41 24 45 26 0 0 -1 -13
-4 -30z m1844 -31 c7 -13 -17 -32 -27 -21 -4 4 -10 18 -14 30 -6 21 -5 23 13
13 12 -6 24 -16 28 -22z m-1883 -61 c-12 -185 -78 -424 -125 -449 -11 -6 -21
-9 -23 -7 -2 2 7 45 20 96 32 128 55 264 55 332 0 54 1 57 38 78 20 12 38 22
38 22 1 0 -1 -33 -3 -72z m1921 10 c32 -21 34 -26 41 -98 6 -77 29 -183 64
-303 18 -63 19 -68 3 -65 -42 8 -117 205 -133 348 -5 47 -11 97 -14 113 -5 33
-4 33 39 5z m-2044 -151 c-10 -68 -20 -86 -46 -87 -6 0 -14 24 -18 53 -4 28
-9 66 -12 84 -5 28 -2 35 38 63 l43 32 3 -37 c2 -20 -2 -69 -8 -108z m2179 63
c35 -21 41 -29 37 -50 -3 -14 -8 -47 -12 -73 -6 -43 -9 -47 -28 -41 -31 9 -33
14 -40 69 -7 56 -15 108 -22 145 l-4 25 14 -25 c8 -14 33 -36 55 -50z m-2285
-82 c3 -35 15 -100 26 -146 20 -84 26 -153 13 -166 -7 -7 -57 126 -94 250
l-22 73 29 25 c16 14 32 26 35 26 3 0 9 -28 13 -62z m1357 51 c213 -16 493
-64 675 -115 60 -16 61 -17 73 -63 6 -25 25 -73 41 -106 18 -38 25 -64 19 -69
-13 -14 -11 -80 2 -110 10 -22 6 -34 -45 -110 -31 -47 -74 -107 -96 -134 l-39
-50 -65 5 -65 6 -78 -73 c-95 -88 -232 -181 -308 -209 -149 -56 -391 -65 -543
-22 -162 47 -328 150 -412 256 -39 50 -47 56 -72 51 -85 -18 -80 -20 -128 39
-25 31 -66 91 -93 134 -47 79 -47 79 -35 125 9 36 10 53 1 77 -10 26 -9 37 6
68 11 20 29 68 41 108 l21 71 112 27 c200 47 444 84 657 98 103 8 204 6 331
-4z m1042 -39 l34 -20 -44 -123 c-25 -67 -50 -137 -57 -156 -13 -36 -19 -34
-30 12 -4 18 2 55 18 106 14 43 28 105 32 139 3 34 8 62 10 62 1 0 18 -9 37
-20z m-2503 -65 l0 -35 -50 0 c-27 0 -50 3 -50 8 0 7 79 60 93 61 4 1 7 -15 7
-34z m2680 -38 c0 -13 -50 -28 -86 -25 -30 2 -34 6 -34 29 0 57 7 60 66 31 29
-15 54 -30 54 -35z m-2494 -29 c-3 -13 -6 -30 -6 -38 -1 -8 -6 -4 -11 9 -11
28 -5 51 12 51 7 0 9 -9 5 -22z m2208 -6 c8 -13 -5 -52 -15 -46 -12 7 -12 54
0 54 6 0 12 -4 15 -8z m-2144 -236 c0 -38 -33 -86 -58 -86 -9 0 -28 9 -42 19
l-24 19 19 23 c24 26 75 59 93 59 7 0 12 -13 12 -34z m2103 20 c18 -7 42 -24
55 -38 l22 -24 -24 -23 c-18 -17 -32 -22 -50 -17 -29 7 -41 26 -49 79 -6 41
-2 44 46 23z m-2050 -204 c25 -43 69 -104 97 -135 44 -49 49 -58 34 -64 -21
-8 -67 41 -156 171 -47 69 -58 90 -47 97 8 5 17 9 20 9 4 0 27 -35 52 -78z
m2027 54 c0 -14 -98 -157 -144 -210 -25 -29 -38 -37 -51 -32 -16 6 -15 10 12
39 43 46 108 135 133 184 14 28 26 40 36 36 8 -3 14 -10 14 -17z m-1727 -286
c94 -122 308 -237 504 -271 88 -15 321 -6 403 16 140 37 251 104 392 234 63
58 69 61 117 61 42 0 56 -5 83 -28 l31 -29 -29 -38 c-41 -54 -161 -148 -236
-184 -153 -74 -367 -115 -603 -115 -246 0 -408 36 -610 136 -108 53 -235 140
-235 161 0 36 87 104 135 106 6 0 27 -22 48 -49z"/>
<path d="M1448 2704 c55 -52 62 -64 62 -97 0 -120 -113 -214 -349 -289 -40
-12 -76 -30 -79 -38 -3 -8 -16 -30 -29 -47 -13 -18 -20 -33 -14 -33 7 0 54 54
67 78 1 1 48 18 105 37 142 48 241 103 257 144 3 9 16 31 29 50 26 38 31 112
12 155 -7 14 -37 42 -68 62 l-56 37 63 -59z"/>
<path d="M817 2484 c-11 -30 -1 -129 18 -192 20 -66 33 -61 15 5 -7 26 -16 84
-19 128 -4 54 -9 73 -14 59z"/>
<path d="M1846 2282 c-75 -41 -95 -102 -53 -162 29 -43 69 -67 132 -75 67 -10
51 5 -22 19 -50 10 -62 17 -90 55 -18 23 -33 49 -33 57 0 23 69 92 103 103 78
23 107 23 152 -2 24 -14 41 -19 39 -12 -3 7 -22 20 -42 29 -51 23 -132 18
-186 -12z"/>
<path d="M829 2211 c-73 -40 -124 -135 -124 -231 0 -104 46 -160 131 -160 19
0 47 6 62 14 69 36 143 150 145 220 1 80 -50 166 -98 166 -12 0 -35 2 -51 5
-18 3 -43 -3 -65 -14z m95 -46 c9 -13 16 -37 16 -52 0 -34 -31 -88 -60 -103
-28 -15 -81 -9 -93 12 -26 40 49 168 98 168 13 0 29 -10 39 -25z m67 -27 c47
-92 -15 -240 -118 -279 -71 -27 -144 34 -142 120 0 51 17 107 18 63 1 -39 19
-61 58 -71 47 -13 81 -5 115 27 36 33 52 84 44 138 -3 24 -4 44 -1 44 3 0 14
-19 26 -42z"/>
<path d="M875 2109 c-4 -6 -17 -14 -29 -19 -14 -6 -16 -9 -5 -9 9 -1 24 8 34
19 10 11 15 20 12 20 -3 0 -9 -5 -12 -11z"/>
<path d="M2034 2185 c-56 -60 -58 -148 -3 -243 37 -65 93 -107 155 -116 60 -8
92 8 122 59 19 33 22 52 20 105 -7 135 -92 230 -207 230 -48 0 -57 -3 -87 -35z
m182 -41 c29 -36 46 -92 33 -115 -14 -26 -57 -35 -87 -18 -55 31 -90 120 -61
155 20 24 88 11 115 -22z m-128 -113 c33 -45 70 -65 113 -64 51 2 79 26 79 67
0 21 3 27 11 19 18 -18 14 -117 -7 -152 -23 -40 -71 -57 -117 -42 -38 13 -97
70 -121 118 -19 38 -21 125 -4 156 11 20 13 18 20 -27 4 -28 15 -61 26 -75z"/>
<path d="M534 2086 c-28 -21 -10 -31 20 -11 25 17 42 17 126 -2 24 -5 25 -5 5
10 -26 21 -124 22 -151 3z"/>
<path d="M2413 1983 c-37 -7 -73 -59 -73 -105 0 -33 6 -46 34 -72 34 -33 130
-67 183 -65 20 0 14 4 -22 13 -69 18 -93 29 -142 65 -36 26 -43 37 -43 65 0
48 46 86 103 86 23 0 49 5 57 10 11 7 2 9 -30 8 -25 0 -55 -3 -67 -5z"/>
<path d="M836 1773 c6 -27 34 -67 41 -60 4 5 -36 87 -42 87 -3 0 -2 -12 1 -27z"/>
<path d="M1305 1744 c-230 -18 -430 -56 -555 -106 -71 -28 -262 -129 -305
-162 -42 -32 9 -13 156 58 233 112 399 148 754 161 223 9 622 -29 802 -75 194
-50 178 -33 -34 34 -167 54 -255 73 -404 86 -105 9 -318 11 -414 4z"/>
<path d="M477 1682 c-9 -10 -20 -39 -23 -64 -6 -42 -4 -47 20 -63 22 -15 31
-16 56 -5 31 13 54 66 43 98 -18 51 -66 67 -96 34z m67 -35 c15 -23 -12 -71
-42 -75 -18 -3 -22 1 -22 23 0 29 29 76 44 72 5 -2 14 -11 20 -20z"/>
<path d="M610 1685 c30 -7 68 -18 84 -24 46 -19 41 -5 -7 18 -26 13 -61 21
-88 20 l-44 -1 55 -13z"/>
<path d="M2457 1682 c-23 -26 -22 -94 1 -115 39 -35 102 -8 102 44 0 74 -62
117 -103 71z m68 -36 c21 -31 5 -66 -29 -66 -27 0 -40 23 -30 54 13 41 37 46
59 12z"/>
<path d="M420 1640 c-14 -10 -22 -21 -19 -24 3 -3 16 5 29 19 28 30 24 32 -10
5z"/>
<path d="M927 1460 c-10 -27 -23 -50 -28 -50 -6 0 -26 15 -45 34 -19 19 -34
28 -34 22 0 -26 69 -70 94 -60 8 3 22 26 30 52 18 53 18 52 8 52 -4 0 -15 -22
-25 -50z"/>
<path d="M1321 1388 c-47 -8 -104 -46 -122 -81 -9 -17 -4 -15 22 9 53 50 96
67 145 60 47 -6 94 -25 134 -53 l25 -17 -20 23 c-40 46 -117 71 -184 59z"/>
</g>
</svg>
